<svg version="1.1" id="Layer_1" xmlns="http://www.w3.org/2000/svg" xmlns:xlink="http://www.w3.org/1999/xlink" x="0px" y="0px"
	 width="100%" viewBox="0 0 2258 1098" enable-background="new 0 0 2258 1098" xml:space="preserve">
<path fill="#000000" opacity="1.000000" stroke="none" 
	d="
M1547.000000,1099.000000 
	C1031.333496,1099.000000 516.166992,1099.000000 1.000345,1099.000000 
	C1.000230,733.000244 1.000230,367.000519 1.000115,1.000591 
	C753.666199,1.000394 1506.332397,1.000394 2258.999023,1.000197 
	C2258.999268,366.999390 2258.999268,732.998779 2258.999512,1098.999023 
	C2021.833374,1099.000000 1784.666626,1099.000000 1547.000000,1099.000000 
M1008.640564,572.407104 
	C1006.840210,599.972900 1008.941284,626.977905 1020.065186,652.711060 
	C1034.578247,686.284485 1065.952148,703.869690 1102.002197,698.402771 
	C1127.252075,694.573608 1147.673950,681.737732 1165.312622,663.871460 
	C1166.307373,662.863831 1167.357788,661.911072 1169.052368,660.292969 
	C1170.248047,671.038879 1171.343262,680.882751 1172.500732,691.285034 
	C1195.474609,690.735229 1218.200317,690.191345 1241.369751,689.636841 
	C1250.207642,606.102234 1259.006470,522.938660 1267.843262,439.415527 
	C1245.522705,439.992645 1224.074219,440.484802 1202.635498,441.250122 
	C1201.289795,441.298157 1199.408813,443.236603 1198.818848,444.712219 
	C1196.016235,451.722229 1193.574951,458.876678 1190.796021,466.557312 
	C1189.807739,465.418732 1189.359863,464.964600 1188.981812,464.458313 
	C1175.359253,446.209717 1156.808960,437.323547 1134.392212,437.072784 
	C1101.272705,436.702301 1074.225098,450.744232 1051.489868,473.965973 
	C1037.550537,488.203552 1027.632324,505.078949 1019.873291,522.438965 
	C1019.171875,515.896240 1017.964661,514.585815 1011.481445,513.321289 
	C1010.177002,513.066895 1008.863220,512.848938 1007.572571,512.536316 
	C975.537781,504.777405 943.520874,496.943512 911.442200,489.370850 
	C909.048645,488.805847 906.216614,490.098633 903.588379,490.527802 
	C904.022888,493.162872 903.802307,496.152679 905.004395,498.372070 
	C910.468872,508.461823 916.421387,518.286743 921.933350,528.352051 
	C922.554260,529.485901 922.075928,532.197998 921.113342,533.034851 
	C918.507568,535.300049 915.380493,536.971680 912.435059,538.839233 
	C893.740234,550.692505 875.053162,562.558044 856.328552,574.364075 
	C851.904053,577.153748 847.345825,579.731384 841.624329,583.135254 
	C842.074463,580.026917 842.177002,578.433472 842.546387,576.904419 
	C846.806091,559.271667 851.049438,541.634644 855.407104,524.025940 
	C865.204224,484.437012 875.105164,444.873627 884.792358,405.257904 
	C885.367188,402.907227 885.142334,399.831879 884.080750,397.694092 
	C875.790955,381.000732 867.178833,364.467773 858.733765,347.850983 
	C857.133789,344.702881 855.516663,344.454559 852.477112,346.392975 
	C840.145630,354.257233 827.671692,361.901215 815.175598,369.503754 
	C787.164917,386.545349 759.097961,403.494507 731.076050,420.517822 
	C707.884521,434.606659 684.716553,448.734375 661.561707,462.883392 
	C658.749878,464.601562 656.799011,464.371918 655.001038,461.338501 
	C648.471375,450.321991 641.652832,439.475067 635.232666,428.396454 
	C633.613831,425.603149 632.226990,423.066589 628.666931,423.347229 
	C624.507751,423.675110 624.088623,427.302124 623.372009,430.287445 
	C620.384766,442.731537 617.653870,455.237274 614.651306,467.677490 
	C609.304199,489.832031 603.810364,511.951111 598.419800,534.095215 
	C597.196533,539.120117 598.844849,541.486267 603.976013,542.725647 
	C622.407471,547.177734 640.834229,551.649597 659.251343,556.160461 
	C674.448853,559.882751 689.595825,563.822754 704.850525,567.290527 
	C707.612183,567.918335 711.648071,567.759155 713.576660,566.146667 
	C716.770752,563.476074 713.922791,559.973328 712.315186,557.187439 
	C707.242737,548.397339 702.068970,539.662598 696.761414,531.012634 
	C694.850647,527.898621 694.660278,526.074951 698.379883,523.959167 
	C721.677979,510.707001 744.819885,497.180267 768.030640,483.774109 
	C773.990723,480.331665 780.012451,476.995972 786.915894,473.097321 
	C786.659424,475.226898 786.633850,476.022247 786.461609,476.784454 
	C780.633606,502.581207 774.848694,528.387878 768.935486,554.165100 
	C763.094238,579.628540 757.030334,605.041138 751.257568,630.519897 
	C749.355408,638.915588 745.560730,647.441956 751.739502,655.836304 
	C753.492859,658.218384 754.601074,661.087646 755.918884,663.775757 
	C762.215698,676.620056 768.513000,689.464294 774.740051,702.342407 
	C776.373535,705.720642 778.325134,706.190735 781.391418,703.965881 
	C784.617676,701.624878 788.063904,699.575073 791.485596,697.517151 
	C831.842285,673.245300 872.224548,649.016113 912.572632,624.729980 
	C927.257629,615.890930 941.878418,606.945129 956.508301,598.014832 
	C959.946167,595.916260 962.506409,594.670227 965.184570,599.662720 
	C970.607117,609.771118 976.663513,619.557129 982.863342,629.216309 
	C984.149048,631.219421 987.255310,633.227234 989.408142,633.111328 
	C990.992859,633.025879 993.174988,629.684082 993.747681,627.449097 
	C997.921509,611.162476 1001.703247,594.775879 1005.751526,578.456177 
	C1006.364014,575.987122 1007.716980,573.701721 1008.640564,572.407104 
M1611.500854,687.064880 
	C1648.225586,694.199524 1680.419556,683.339172 1710.225342,660.892212 
	C1712.002808,668.213623 1713.761719,674.248718 1714.853271,680.402100 
	C1715.520752,684.164490 1717.222290,685.176880 1720.811890,685.203857 
	C1732.635742,685.292969 1744.456055,685.819580 1756.280273,685.944275 
	C1769.745605,686.086304 1783.213501,685.977112 1797.188354,685.977112 
	C1804.517212,570.765259 1811.871216,455.156799 1819.249023,339.173218 
	C1785.773438,338.447449 1752.880615,337.734344 1718.954956,336.998840 
	C1717.265015,375.739502 1715.597778,413.956879 1713.940308,451.952423 
	C1713.771973,451.816223 1713.119507,451.340424 1712.525757,450.799896 
	C1689.893921,430.196594 1662.755371,424.381958 1633.497559,428.598114 
	C1591.255249,434.685425 1560.573608,458.185760 1540.680664,495.389313 
	C1522.929565,528.587341 1520.202515,564.270874 1526.755005,600.831543 
	C1530.720337,622.956482 1539.982300,642.614929 1555.998413,658.793396 
	C1571.174683,674.123413 1589.770508,682.730347 1611.500854,687.064880 
M521.473755,435.140320 
	C553.274963,435.140320 585.076172,435.140320 617.579041,435.140320 
	C618.610229,416.369141 619.671143,397.057343 620.748779,377.440521 
	C539.162842,376.891937 458.315094,376.348328 377.360901,375.804016 
	C370.778717,482.552460 364.242737,588.551758 357.668182,695.176819 
	C441.068390,695.792297 523.950256,696.403992 607.177490,697.018250 
	C608.245361,677.389771 609.289246,658.202515 610.402222,637.744263 
	C556.346008,637.744263 503.132660,637.744263 449.617981,637.744263 
	C451.548889,610.981934 453.389587,585.470215 455.212555,560.203613 
	C499.480255,560.203613 543.069641,560.203613 587.019470,560.203613 
	C588.093750,540.956909 589.164795,521.768494 590.293640,501.544678 
	C545.903992,501.544678 502.167542,501.544678 458.260590,501.544678 
	C459.531555,478.813385 460.745941,457.094177 461.973450,435.140350 
	C481.901093,435.140350 501.191437,435.140350 521.473755,435.140320 
M1510.084961,555.648438 
	C1524.172607,516.607605 1538.260132,477.566772 1552.476318,438.169617 
	C1523.040771,438.169617 1494.424683,438.169617 1464.959351,438.169617 
	C1450.343628,493.689209 1435.724609,549.221436 1421.056396,604.940552 
	C1420.692993,604.168762 1420.156372,603.374390 1419.931396,602.499878 
	C1416.741455,590.100220 1414.138794,577.519775 1410.336548,565.312622 
	C1397.433105,523.887085 1384.094360,482.597260 1370.979736,441.237274 
	C1370.123657,438.537476 1368.593872,437.898743 1365.880005,437.909515 
	C1338.554199,438.018005 1311.227905,437.974365 1283.901733,437.994720 
	C1282.346436,437.995880 1280.791382,438.181854 1278.810913,438.309143 
	C1279.806274,440.846466 1280.551758,442.849609 1281.371704,444.821808 
	C1291.018433,468.027039 1300.662231,491.233490 1310.334351,514.428101 
	C1332.432007,567.419495 1354.553101,620.400879 1376.619385,673.405273 
	C1377.495117,675.508972 1378.801758,677.996826 1378.378906,679.979858 
	C1376.570801,688.460144 1374.183105,696.803772 1367.788940,703.268799 
	C1357.630859,713.539429 1344.839600,715.322754 1331.331665,714.378113 
	C1326.915649,714.069275 1322.562622,712.861389 1317.638916,711.966125 
	C1312.333618,733.731140 1307.084106,755.267029 1301.814575,776.885620 
	C1303.513916,777.386414 1304.615356,777.761780 1305.741455,778.035339 
	C1324.248047,782.529968 1342.996338,782.976135 1361.825195,781.029785 
	C1391.117676,778.001648 1415.096191,765.365784 1432.999756,741.574524 
	C1447.066162,722.882568 1457.016602,702.048096 1465.039551,680.295715 
	C1480.237305,639.090576 1494.961304,597.710754 1510.084961,555.648438 
M1890.484131,693.096863 
	C1915.013306,687.036011 1929.822144,668.552246 1930.366821,643.003601 
	C1931.051636,610.890686 1906.098755,584.661743 1871.306274,590.625427 
	C1842.628296,595.541077 1825.822510,622.313721 1831.107300,652.565247 
	C1835.992310,680.527344 1860.950928,697.861877 1890.484131,693.096863 
z"/>
<path fill="#FEFEFE" opacity="1.000000" stroke="none" 
	d="
M1611.074585,687.007690 
	C1589.770508,682.730347 1571.174683,674.123413 1555.998413,658.793396 
	C1539.982300,642.614929 1530.720337,622.956482 1526.755005,600.831543 
	C1520.202515,564.270874 1522.929565,528.587341 1540.680664,495.389313 
	C1560.573608,458.185760 1591.255249,434.685425 1633.497559,428.598114 
	C1662.755371,424.381958 1689.893921,430.196594 1712.525757,450.799896 
	C1713.119507,451.340424 1713.771973,451.816223 1713.940308,451.952423 
	C1715.597778,413.956879 1717.265015,375.739502 1718.954956,336.998840 
	C1752.880615,337.734344 1785.773438,338.447449 1819.249023,339.173218 
	C1811.871216,455.156799 1804.517212,570.765259 1797.188354,685.977112 
	C1783.213501,685.977112 1769.745605,686.086304 1756.280273,685.944275 
	C1744.456055,685.819580 1732.635742,685.292969 1720.811890,685.203857 
	C1717.222290,685.176880 1715.520752,684.164490 1714.853271,680.402100 
	C1713.761719,674.248718 1712.002808,668.213623 1710.225342,660.892212 
	C1680.419556,683.339172 1648.225586,694.199524 1611.074585,687.007690 
M1644.987671,507.459412 
	C1641.846436,511.512451 1637.861328,515.163086 1635.704468,519.685547 
	C1623.878906,544.481750 1622.544434,570.288147 1630.226440,596.461487 
	C1632.957520,605.766663 1639.292847,612.688110 1648.490356,616.463135 
	C1661.004883,621.599609 1684.686646,622.701416 1699.178467,606.396851 
	C1701.187744,604.136292 1702.702881,600.705994 1702.926270,597.704163 
	C1704.703857,573.808655 1705.964966,549.875122 1707.687500,525.975098 
	C1708.914307,508.955353 1708.002319,506.873108 1691.376099,501.697510 
	C1675.454468,496.741241 1659.635620,495.123413 1644.987671,507.459412 
z"/>
<path fill="#F90230" opacity="1.000000" stroke="none" 
	d="
M1008.727417,571.331360 
	C1007.716980,573.701721 1006.364014,575.987122 1005.751526,578.456177 
	C1001.703247,594.775879 997.921509,611.162476 993.747681,627.449097 
	C993.174988,629.684082 990.992859,633.025879 989.408142,633.111328 
	C987.255310,633.227234 984.149048,631.219421 982.863342,629.216309 
	C976.663513,619.557129 970.607117,609.771118 965.184570,599.662720 
	C962.506409,594.670227 959.946167,595.916260 956.508301,598.014832 
	C941.878418,606.945129 927.257629,615.890930 912.572632,624.729980 
	C872.224548,649.016113 831.842285,673.245300 791.485596,697.517151 
	C788.063904,699.575073 784.617676,701.624878 781.391418,703.965881 
	C778.325134,706.190735 776.373535,705.720642 774.740051,702.342407 
	C768.513000,689.464294 762.215698,676.620056 755.918884,663.775757 
	C754.601074,661.087646 753.492859,658.218384 751.739502,655.836304 
	C745.560730,647.441956 749.355408,638.915588 751.257568,630.519897 
	C757.030334,605.041138 763.094238,579.628540 768.935486,554.165100 
	C774.848694,528.387878 780.633606,502.581207 786.461609,476.784454 
	C786.633850,476.022247 786.659424,475.226898 786.915894,473.097321 
	C780.012451,476.995972 773.990723,480.331665 768.030640,483.774109 
	C744.819885,497.180267 721.677979,510.707001 698.379883,523.959167 
	C694.660278,526.074951 694.850647,527.898621 696.761414,531.012634 
	C702.068970,539.662598 707.242737,548.397339 712.315186,557.187439 
	C713.922791,559.973328 716.770752,563.476074 713.576660,566.146667 
	C711.648071,567.759155 707.612183,567.918335 704.850525,567.290527 
	C689.595825,563.822754 674.448853,559.882751 659.251343,556.160461 
	C640.834229,551.649597 622.407471,547.177734 603.976013,542.725647 
	C598.844849,541.486267 597.196533,539.120117 598.419800,534.095215 
	C603.810364,511.951111 609.304199,489.832031 614.651306,467.677490 
	C617.653870,455.237274 620.384766,442.731537 623.372009,430.287445 
	C624.088623,427.302124 624.507751,423.675110 628.666931,423.347229 
	C632.226990,423.066589 633.613831,425.603149 635.232666,428.396454 
	C641.652832,439.475067 648.471375,450.321991 655.001038,461.338501 
	C656.799011,464.371918 658.749878,464.601562 661.561707,462.883392 
	C684.716553,448.734375 707.884521,434.606659 731.076050,420.517822 
	C759.097961,403.494507 787.164917,386.545349 815.175598,369.503754 
	C827.671692,361.901215 840.145630,354.257233 852.477112,346.392975 
	C855.516663,344.454559 857.133789,344.702881 858.733765,347.850983 
	C867.178833,364.467773 875.790955,381.000732 884.080750,397.694092 
	C885.142334,399.831879 885.367188,402.907227 884.792358,405.257904 
	C875.105164,444.873627 865.204224,484.437012 855.407104,524.025940 
	C851.049438,541.634644 846.806091,559.271667 842.546387,576.904419 
	C842.177002,578.433472 842.074463,580.026917 841.624329,583.135254 
	C847.345825,579.731384 851.904053,577.153748 856.328552,574.364075 
	C875.053162,562.558044 893.740234,550.692505 912.435059,538.839233 
	C915.380493,536.971680 918.507568,535.300049 921.113342,533.034851 
	C922.075928,532.197998 922.554260,529.485901 921.933350,528.352051 
	C916.421387,518.286743 910.468872,508.461823 905.004395,498.372070 
	C903.802307,496.152679 904.022888,493.162872 903.588379,490.527771 
	C906.216614,490.098633 909.048645,488.805847 911.442200,489.370850 
	C943.520874,496.943512 975.537781,504.777405 1007.572571,512.536316 
	C1008.863220,512.848938 1010.177002,513.066895 1011.481445,513.321289 
	C1017.964661,514.585815 1019.171875,515.896240 1019.975952,523.180237 
	C1016.294861,539.724792 1012.511169,555.528076 1008.727417,571.331360 
z"/>
<path fill="#FDFDFD" opacity="1.000000" stroke="none" 
	d="
M520.977783,435.140320 
	C501.191437,435.140350 481.901093,435.140350 461.973450,435.140350 
	C460.745941,457.094177 459.531555,478.813385 458.260590,501.544678 
	C502.167542,501.544678 545.903992,501.544678 590.293640,501.544678 
	C589.164795,521.768494 588.093750,540.956909 587.019470,560.203613 
	C543.069641,560.203613 499.480255,560.203613 455.212555,560.203613 
	C453.389587,585.470215 451.548889,610.981934 449.617981,637.744263 
	C503.132660,637.744263 556.346008,637.744263 610.402222,637.744263 
	C609.289246,658.202515 608.245361,677.389771 607.177490,697.018250 
	C523.950256,696.403992 441.068390,695.792297 357.668182,695.176819 
	C364.242737,588.551758 370.778717,482.552460 377.360901,375.804016 
	C458.315094,376.348328 539.162842,376.891937 620.748779,377.440521 
	C619.671143,397.057343 618.610229,416.369141 617.579041,435.140320 
	C585.076172,435.140320 553.274963,435.140320 520.977783,435.140320 
z"/>
<path fill="#FDFDFD" opacity="1.000000" stroke="none" 
	d="
M1008.684021,571.869263 
	C1012.511169,555.528076 1016.294861,539.724792 1020.038940,523.647705 
	C1027.632324,505.078949 1037.550537,488.203552 1051.489868,473.965973 
	C1074.225098,450.744232 1101.272705,436.702301 1134.392212,437.072784 
	C1156.808960,437.323547 1175.359253,446.209717 1188.981812,464.458313 
	C1189.359863,464.964600 1189.807739,465.418732 1190.796021,466.557312 
	C1193.574951,458.876678 1196.016235,451.722229 1198.818848,444.712219 
	C1199.408813,443.236603 1201.289795,441.298157 1202.635498,441.250122 
	C1224.074219,440.484802 1245.522705,439.992645 1267.843262,439.415527 
	C1259.006470,522.938660 1250.207642,606.102234 1241.369751,689.636841 
	C1218.200317,690.191345 1195.474609,690.735229 1172.500732,691.285034 
	C1171.343262,680.882751 1170.248047,671.038879 1169.052368,660.292969 
	C1167.357788,661.911072 1166.307373,662.863831 1165.312622,663.871460 
	C1147.673950,681.737732 1127.252075,694.573608 1102.002197,698.402771 
	C1065.952148,703.869690 1034.578247,686.284485 1020.065186,652.711060 
	C1008.941284,626.977905 1006.840210,599.972900 1008.684021,571.869263 
M1095.155273,576.633972 
	C1095.127197,590.659119 1095.380005,604.655945 1101.105347,617.835754 
	C1104.473267,625.588806 1109.919067,631.178955 1118.446289,632.954895 
	C1138.199219,637.068787 1164.927490,617.611877 1167.155029,597.476440 
	C1169.846558,573.148926 1172.427002,548.808838 1174.927002,524.460999 
	C1175.152344,522.265137 1175.094238,519.596313 1174.054810,517.786316 
	C1167.159790,505.779846 1150.783813,499.160767 1137.250610,502.683197 
	C1124.536011,505.992523 1115.818970,514.479004 1109.115967,525.214600 
	C1099.500122,540.615234 1096.126831,557.834656 1095.155273,576.633972 
z"/>
<path fill="#FDFDFD" opacity="1.000000" stroke="none" 
	d="
M1509.983643,556.026001 
	C1494.961304,597.710754 1480.237305,639.090576 1465.039551,680.295715 
	C1457.016602,702.048096 1447.066162,722.882568 1432.999756,741.574524 
	C1415.096191,765.365784 1391.117676,778.001648 1361.825195,781.029785 
	C1342.996338,782.976135 1324.248047,782.529968 1305.741455,778.035339 
	C1304.615356,777.761780 1303.513916,777.386414 1301.814575,776.885620 
	C1307.084106,755.267029 1312.333618,733.731140 1317.638916,711.966125 
	C1322.562622,712.861389 1326.915649,714.069275 1331.331665,714.378113 
	C1344.839600,715.322754 1357.630859,713.539429 1367.788940,703.268799 
	C1374.183105,696.803772 1376.570801,688.460144 1378.378906,679.979858 
	C1378.801758,677.996826 1377.495117,675.508972 1376.619385,673.405273 
	C1354.553101,620.400879 1332.432007,567.419495 1310.334351,514.428101 
	C1300.662231,491.233490 1291.018433,468.027039 1281.371704,444.821808 
	C1280.551758,442.849609 1279.806274,440.846466 1278.810913,438.309143 
	C1280.791382,438.181854 1282.346436,437.995880 1283.901733,437.994720 
	C1311.227905,437.974365 1338.554199,438.018005 1365.880005,437.909515 
	C1368.593872,437.898743 1370.123657,438.537476 1370.979736,441.237274 
	C1384.094360,482.597260 1397.433105,523.887085 1410.336548,565.312622 
	C1414.138794,577.519775 1416.741455,590.100220 1419.931396,602.499878 
	C1420.156372,603.374390 1420.692993,604.168762 1421.056396,604.940552 
	C1435.724609,549.221436 1450.343628,493.689209 1464.959351,438.169617 
	C1494.424683,438.169617 1523.040771,438.169617 1552.476318,438.169617 
	C1538.260132,477.566772 1524.172607,516.607605 1509.983643,556.026001 
z"/>
<path fill="#FCFCFC" opacity="1.000000" stroke="none" 
	d="
M1890.053955,693.151794 
	C1860.950928,697.861877 1835.992310,680.527344 1831.107300,652.565247 
	C1825.822510,622.313721 1842.628296,595.541077 1871.306274,590.625427 
	C1906.098755,584.661743 1931.051636,610.890686 1930.366821,643.003601 
	C1929.822144,668.552246 1915.013306,687.036011 1890.053955,693.151794 
z"/>
<path fill="#030303" opacity="1.000000" stroke="none" 
	d="
M1645.254639,507.223328 
	C1659.635620,495.123413 1675.454468,496.741241 1691.376099,501.697510 
	C1708.002319,506.873108 1708.914307,508.955353 1707.687500,525.975098 
	C1705.964966,549.875122 1704.703857,573.808655 1702.926270,597.704163 
	C1702.702881,600.705994 1701.187744,604.136292 1699.178467,606.396851 
	C1684.686646,622.701416 1661.004883,621.599609 1648.490356,616.463135 
	C1639.292847,612.688110 1632.957520,605.766663 1630.226440,596.461487 
	C1622.544434,570.288147 1623.878906,544.481750 1635.704468,519.685547 
	C1637.861328,515.163086 1641.846436,511.512451 1645.254639,507.223328 
z"/>
<path fill="#030303" opacity="1.000000" stroke="none" 
	d="
M1095.155151,576.154236 
	C1096.126831,557.834656 1099.500122,540.615234 1109.115967,525.214600 
	C1115.818970,514.479004 1124.536011,505.992523 1137.250610,502.683197 
	C1150.783813,499.160767 1167.159790,505.779846 1174.054810,517.786316 
	C1175.094238,519.596313 1175.152344,522.265137 1174.927002,524.460999 
	C1172.427002,548.808838 1169.846558,573.148926 1167.155029,597.476440 
	C1164.927490,617.611877 1138.199219,637.068787 1118.446289,632.954895 
	C1109.919067,631.178955 1104.473267,625.588806 1101.105347,617.835754 
	C1095.380005,604.655945 1095.127197,590.659119 1095.155151,576.154236 
z"/>
</svg>