<?xml version="1.0" standalone="no"?>
<!DOCTYPE svg PUBLIC "-//W3C//DTD SVG 20010904//EN"
 "http://www.w3.org/TR/2001/REC-SVG-20010904/DTD/svg10.dtd">
<svg version="1.0" xmlns="http://www.w3.org/2000/svg"
 width="717.000000pt" height="348.000000pt" viewBox="0 0 717.000000 348.000000"
 preserveAspectRatio="xMidYMid meet">

<g transform="translate(0.000000,348.000000) scale(0.100000,-0.100000)"
fill="#000000" stroke="none">
<path d="M2585 2305 c-66 -41 -167 -102 -225 -137 -58 -34 -138 -84 -179 -110
-40 -26 -79 -48 -87 -48 -7 0 -29 27 -49 60 -21 34 -42 59 -49 57 -11 -3 -82
-270 -88 -330 l-3 -29 170 -44 c94 -24 176 -42 183 -39 11 4 6 19 -17 60 -17
30 -31 59 -31 64 0 5 37 30 83 56 45 26 109 63 141 82 32 18 60 32 62 30 5 -5
-40 -214 -80 -374 -20 -78 -36 -151 -36 -162 0 -12 19 -59 42 -106 32 -63 47
-84 58 -80 16 7 359 209 483 287 43 26 84 48 91 48 8 0 19 -14 26 -30 15 -36
48 -80 60 -80 4 0 15 33 25 73 9 39 23 88 30 107 20 48 46 170 40 180 -3 5
-31 14 -63 20 -31 6 -108 25 -171 41 -64 17 -118 26 -123 21 -4 -4 6 -34 23
-66 21 -39 28 -61 21 -68 -15 -15 -246 -158 -249 -154 -2 2 28 132 67 289 l71
286 -43 83 c-24 45 -47 83 -53 84 -5 2 -64 -30 -130 -71z"/>
</g>
</svg>
